<?xml version="1.0" encoding="UTF-8"?>
<svg id="Layer_1" data-name="Layer 1" xmlns="http://www.w3.org/2000/svg" viewBox="0 0 512 512">
  <defs>
    <style>
      .cls-1 {
        fill: #fff;
        stroke-width: 0px;
      }
    </style>
  </defs>
  <circle class="cls-1" cx="256" cy="256" r="52.5"/>
  <path class="cls-1" d="M256,6C117.93,6,6,117.93,6,256s111.93,250,250,250,250-111.93,250-250S394.07,6,256,6ZM410.46,319.54c-1.2,23.77-7.88,47.21-25.2,64.34-17.49,17.3-41.04,23.75-65.04,24.93h-128.45c-24-1.19-47.55-7.63-65.04-24.93-17.32-17.14-24-40.58-25.2-64.34v-127.08c1.2-23.77,7.88-47.21,25.2-64.34,17.49-17.3,41.04-23.75,65.04-24.93h128.44c24,1.19,47.55,7.63,65.04,24.93,17.32,17.14,24,40.58,25.2,64.34v127.08Z"/>
  <path class="cls-1" d="M318.6,132.14c-31.29-.86-93.91-.86-125.19,0-16.28.45-34.74,4.5-46.34,16.89-12.05,12.88-16.61,28.44-17.07,45.85-.81,30.55,0,122.25,0,122.25.53,17.4,5.02,32.97,17.07,45.85,11.6,12.39,30.06,16.44,46.34,16.89,31.29.86,93.91.86,125.19,0,16.28-.45,34.74-4.5,46.34-16.89,12.05-12.88,16.61-28.44,17.07-45.85v-122.25c-.46-17.41-5.02-32.97-17.07-45.85-11.6-12.39-30.06-16.44-46.34-16.89h0ZM256,337.38c-44.94,0-81.38-36.43-81.38-81.38s36.43-81.38,81.38-81.38,81.38,36.43,81.38,81.38h0c0,44.94-36.43,81.38-81.38,81.38ZM337.72,191.42c-8.99,0-16.27-7.29-16.27-16.28,0-8.99,7.29-16.27,16.28-16.27,8.99,0,16.27,7.29,16.27,16.28s-7.29,16.27-16.27,16.27h0Z"/>
</svg>