<svg width="48" height="51" viewBox="0 0 48 51" fill="none" xmlns="http://www.w3.org/2000/svg">
<path d="M24.5 32.6238C28.6421 32.6238 32 29.3593 32 25.3324C32 21.3055 28.6421 18.041 24.5 18.041C20.3579 18.041 17 21.3055 17 25.3324C17 29.3593 20.3579 32.6238 24.5 32.6238Z" stroke="#0156FF" stroke-width="3" stroke-linecap="round" stroke-linejoin="round"/>
<path d="M28 25.3325C28 26.235 27.6313 27.1004 26.9749 27.7386C26.3185 28.3767 25.4283 28.7352 24.5 28.7352" stroke="#0156FF" stroke-width="3" stroke-linecap="round" stroke-linejoin="round"/>
<path d="M42 12.694C44.4853 12.694 46.5 10.7353 46.5 8.31917C46.5 5.90301 44.4853 3.94434 42 3.94434C39.5147 3.94434 37.5 5.90301 37.5 8.31917C37.5 10.7353 39.5147 12.694 42 12.694Z" stroke="#0156FF" stroke-width="3" stroke-linecap="round" stroke-linejoin="round"/>
<path d="M8 14.6384C11.5899 14.6384 14.5 11.8092 14.5 8.3192C14.5 4.8292 11.5899 2 8 2C4.41015 2 1.5 4.8292 1.5 8.3192C1.5 11.8092 4.41015 14.6384 8 14.6384Z" stroke="#0156FF" stroke-width="3" stroke-linecap="round" stroke-linejoin="round"/>
<path d="M38 48.6647C41.0376 48.6647 43.5 46.2708 43.5 43.3177C43.5 40.3646 41.0376 37.9707 38 37.9707C34.9624 37.9707 32.5 40.3646 32.5 43.3177C32.5 46.2708 34.9624 48.6647 38 48.6647Z" stroke="#0156FF" stroke-width="3" stroke-linecap="round" stroke-linejoin="round"/>
<path d="M34.5 39.196L29 31.6519" stroke="#0156FF" stroke-width="3" stroke-linecap="round" stroke-linejoin="round"/>
<path d="M19.4 19.9854L16 16.0967" stroke="#0156FF" stroke-width="3" stroke-linecap="round" stroke-linejoin="round"/>
<path d="M29.6001 19.9853L38.5501 11.7217" stroke="#0156FF" stroke-width="3" stroke-linecap="round" stroke-linejoin="round"/>
<path d="M8.5 45.7482C10.7091 45.7482 12.5 44.0071 12.5 41.8594C12.5 39.7118 10.7091 37.9707 8.5 37.9707C6.29086 37.9707 4.5 39.7118 4.5 41.8594C4.5 44.0071 6.29086 45.7482 8.5 45.7482Z" stroke="#0156FF" stroke-width="3" stroke-linecap="round" stroke-linejoin="round"/>
</svg>
