<svg width="39" height="51" viewBox="0 0 39 51" fill="none" xmlns="http://www.w3.org/2000/svg">
<path d="M7.5 42.834H37.5" stroke="#0156FF" stroke-width="2.5" stroke-linecap="round" stroke-linejoin="round"/>
<path d="M37.5 48.6675H35.5" stroke="#0156FF" stroke-width="2" stroke-linecap="round" stroke-linejoin="round"/>
<path d="M23 48.6675H7.5C5.9087 48.6675 4.38258 48.053 3.25736 46.959C2.13214 45.8651 1.5 44.3814 1.5 42.8344C1.5 41.2874 2.13214 39.8037 3.25736 38.7098C4.38258 37.6159 5.9087 37.0013 7.5 37.0013H31.5C33.0913 37.0013 34.6174 36.3867 35.7426 35.2928C36.8679 34.1989 37.5 32.7152 37.5 31.1682V18.5298" stroke="#0156FF" stroke-width="2.5" stroke-linecap="round" stroke-linejoin="round"/>
<path d="M22 2.00244H7.5C5.9087 2.00244 4.38258 2.617 3.25736 3.71092C2.13214 4.80484 1.5 6.28851 1.5 7.83555V42.8342" stroke="#0156FF" stroke-width="2.5" stroke-linecap="round" stroke-linejoin="round"/>
<path d="M30.5 42.834H23.5V48.8518C23.4997 48.937 23.5215 49.0209 23.5635 49.0957C23.6055 49.1704 23.6662 49.2337 23.74 49.2796C23.8184 49.3204 23.906 49.3418 23.995 49.3418C24.084 49.3418 24.1716 49.3204 24.25 49.2796L26.25 48.4629C26.5023 48.3559 26.7747 48.3006 27.05 48.3006C27.3253 48.3006 27.5977 48.3559 27.85 48.4629L29.85 49.2796C29.9284 49.3204 30.016 49.3418 30.105 49.3418C30.194 49.3418 30.2816 49.3204 30.36 49.2796C30.4338 49.2337 30.4946 49.1704 30.5365 49.0957C30.5785 49.0209 30.6003 48.937 30.6 48.8518L30.5 42.834Z" stroke="#0156FF" stroke-width="2.5" stroke-linecap="round" stroke-linejoin="round"/>
<path d="M12.5 17.5576H20.5" stroke="#0156FF" stroke-width="2.5" stroke-linecap="round" stroke-linejoin="round"/>
<path d="M16 23.3906H23" stroke="#0156FF" stroke-width="2.5" stroke-linecap="round" stroke-linejoin="round"/>
</svg>
