<svg width="44" height="51" viewBox="0 0 44 51" fill="none" xmlns="http://www.w3.org/2000/svg">
<path d="M7.5 42.834H37.5" stroke="#0156FF" stroke-width="3" stroke-linecap="round" stroke-linejoin="round"/>
<path d="M37.5 48.6675H35.5" stroke="#0156FF" stroke-width="2" stroke-linecap="round" stroke-linejoin="round"/>
<path d="M23 48.6675H7.5C5.9087 48.6675 4.38258 48.053 3.25736 46.959C2.13214 45.8651 1.5 44.3814 1.5 42.8344C1.5 41.2874 2.13214 39.8037 3.25736 38.7098C4.38258 37.6159 5.9087 37.0013 7.5 37.0013H31.5C33.0913 37.0013 34.6174 36.3867 35.7426 35.2928C36.8679 34.1989 37.5 32.7152 37.5 31.1682V18.5298" stroke="#0156FF" stroke-width="2.5" stroke-linecap="round" stroke-linejoin="round"/>
<path d="M22 2.00244H7.5C5.9087 2.00244 4.38258 2.617 3.25736 3.71092C2.13214 4.80484 1.5 6.28851 1.5 7.83555V42.8342" stroke="#0156FF" stroke-width="3" stroke-linecap="round" stroke-linejoin="round"/>
<path d="M30.5 42.834H23.5V48.8518C23.4997 48.937 23.5215 49.0209 23.5635 49.0957C23.6055 49.1704 23.6662 49.2337 23.74 49.2796C23.8184 49.3204 23.906 49.3418 23.995 49.3418C24.084 49.3418 24.1716 49.3204 24.25 49.2796L26.25 48.4629C26.5023 48.3559 26.7747 48.3006 27.05 48.3006C27.3253 48.3006 27.5977 48.3559 27.85 48.4629L29.85 49.2796C29.9284 49.3204 30.016 49.3418 30.105 49.3418C30.194 49.3418 30.2816 49.3204 30.36 49.2796C30.4338 49.2337 30.4946 49.1704 30.5365 49.0957C30.5785 49.0209 30.6003 48.937 30.6 48.8518L30.5 42.834Z" stroke="#0156FF" stroke-width="3" stroke-linecap="round" stroke-linejoin="round"/>
<path d="M12.5 17.5576H20.5" stroke="#0156FF" stroke-width="3" stroke-linecap="round" stroke-linejoin="round"/>
<path d="M16 23.3906H23" stroke="#0156FF" stroke-width="3" stroke-linecap="round" stroke-linejoin="round"/>
<path d="M35.16 2.13854C34.0615 1.95382 32.9385 1.95382 31.84 2.13854L31.31 4.57872C30.283 4.8875 29.34 5.41564 28.55 6.12449L26.11 5.35647C25.4152 6.19155 24.8709 7.13493 24.5 8.14664L26.36 9.77991C26.12 10.8038 26.12 11.867 26.36 12.8909L24.5 14.5825C24.8831 15.5969 25.4411 16.5404 26.15 17.3727L28.55 16.5852C29.34 17.2941 30.283 17.8222 31.31 18.131L31.84 20.5712C32.9385 20.7559 34.0615 20.7559 35.16 20.5712L35.69 18.131C36.7348 17.8289 37.6956 17.3003 38.5 16.5852L40.94 17.3532C41.6151 16.5206 42.1424 15.5841 42.5 14.5825L40.6 12.9201C40.84 11.8962 40.84 10.8329 40.6 9.80908L42.5 8.14664C42.1169 7.13226 41.5589 6.18872 40.85 5.35647L38.5 6.12449C37.71 5.41564 36.767 4.8875 35.74 4.57872L35.16 2.13854Z" stroke="#0156FF" stroke-width="2" stroke-linecap="round" stroke-linejoin="round"/>
<path d="M33.4999 8.80762C34.0181 8.80762 34.5246 8.957 34.9555 9.23688C35.3863 9.51677 35.7221 9.91457 35.9204 10.38C36.1187 10.8454 36.1706 11.3576 36.0695 11.8517C35.9684 12.3458 35.7189 12.7996 35.3525 13.1558C34.9861 13.5121 34.5192 13.7546 34.011 13.8529C33.5028 13.9512 32.976 13.9008 32.4972 13.708C32.0185 13.5152 31.6093 13.1887 31.3214 12.7698C31.0335 12.351 30.8799 11.8585 30.8799 11.3547C30.8799 10.6792 31.1559 10.0313 31.6473 9.55365C32.1386 9.07597 32.805 8.80762 33.4999 8.80762Z" stroke="#0156FF" stroke-width="2.5" stroke-linecap="round" stroke-linejoin="round"/>
</svg>
